<svg width="253" height="300" viewBox="0 0 253 300" fill="none" xmlns="http://www.w3.org/2000/svg">
<path d="M100.147 1.46354e-05H16.56C14.3859 -0.00173723 12.2328 0.424948 10.2238 1.25571C8.21469 2.08647 6.38903 3.30501 4.85111 4.84169C3.3132 6.37836 2.09319 8.20308 1.26081 10.2115C0.428432 12.2199 -7.05826e-07 14.3726 0 16.5467V108.333C10.28 106.08 18.4 99.6666 29.3333 91.9066C43.0267 82.2133 60.7733 71.2933 88.2266 71.2933C132.227 71.2933 163.293 109.96 163.293 149.96C163.293 189.96 132.227 228.627 88.2266 228.627C60.8267 228.627 43.08 217.733 29.4 208.04C18.4533 200.28 10.32 193.88 0.0666605 191.627V283.427C0.0701916 287.821 1.81745 292.034 4.92478 295.142C8.03212 298.249 12.2456 299.996 16.64 300H103.933C143.222 299.996 180.9 284.387 208.68 256.604C236.46 228.822 252.067 191.142 252.067 151.853V151.853C252.067 131.906 248.137 112.154 240.501 93.7262C232.866 75.2981 221.674 58.555 207.566 44.4533C193.458 30.3515 176.71 19.1674 158.279 11.54C139.847 3.91259 120.094 -0.00874262 100.147 1.46354e-05V1.46354e-05Z" fill="white"/>
<path d="M88.2267 211.173C121.973 211.173 145.867 181 145.867 150C145.867 119 121.92 88.8133 88.2267 88.8133C65.1867 88.8133 52.5201 96.8133 39.4801 106.147C28.3067 113.96 16.6401 123.36 0.573402 125.96V173.96C16.5734 176.627 28.3067 185.96 39.4267 193.813C52.4667 203.12 65.1334 211.173 88.2267 211.173ZM59.5467 191.88C60.287 189.71 61.8233 187.901 63.8452 186.82C65.8671 185.738 68.224 185.464 70.4401 186.053C74.286 187.254 78.2909 187.87 82.32 187.88C92.3019 187.895 101.939 184.232 109.392 177.592C116.844 170.951 121.589 161.798 122.72 151.88C122.95 149.641 124.009 147.569 125.689 146.071C127.369 144.573 129.549 143.758 131.8 143.787C138.093 144.693 140.44 148.787 140.053 153.893C139.075 162.366 136.245 170.519 131.762 177.775C127.28 185.03 121.255 191.211 114.116 195.877C106.978 200.543 98.8993 203.581 90.4547 204.775C82.0101 205.97 73.4062 205.291 65.2534 202.787C63.0888 202.038 61.2895 200.496 60.22 198.471C59.1505 196.445 58.8908 194.089 59.4934 191.88H59.5467Z" fill="white"/>
</svg>
