<?xml version="1.0" standalone="no"?>
<!DOCTYPE svg PUBLIC "-//W3C//DTD SVG 20010904//EN"
 "http://www.w3.org/TR/2001/REC-SVG-20010904/DTD/svg10.dtd">
<svg version="1.0" xmlns="http://www.w3.org/2000/svg"
 width="512.000000pt" height="512.000000pt" viewBox="0 0 512.000000 512.000000"
 preserveAspectRatio="xMidYMid meet">

<g transform="translate(0.000000,512.000000) scale(0.100000,-0.100000)"
fill="#000000" stroke="none">
<path d="M2509 5041 c-23 -18 -24 -24 -24 -154 0 -156 9 -177 75 -177 63 0 70
16 70 173 0 124 -2 139 -20 157 -25 25 -71 26 -101 1z"/>
<path d="M1729 4721 c-16 -13 -23 -29 -23 -55 0 -33 9 -46 92 -128 82 -83 95
-92 128 -92 26 0 42 7 55 23 37 45 26 68 -79 173 -105 105 -128 116 -173 79z"/>
<path d="M3214 4646 c-79 -79 -94 -98 -94 -125 0 -47 41 -85 83 -77 37 8 181
144 202 191 23 52 -12 104 -69 105 -23 0 -47 -18 -122 -94z"/>
<path d="M2455 4579 c-87 -12 -199 -54 -280 -104 -68 -42 -182 -150 -219 -207
l-18 -28 -697 0 c-448 0 -709 -4 -733 -10 -99 -28 -173 -130 -185 -253 l-6
-68 -51 -26 c-117 -59 -231 -216 -256 -354 -7 -37 -10 -513 -8 -1415 l3 -1359
23 -59 c61 -162 199 -290 357 -331 51 -13 178 -15 911 -15 469 0 860 -3 869
-6 9 -4 30 -33 46 -66 42 -84 100 -142 178 -181 61 -30 72 -32 171 -32 99 0
110 2 172 33 77 38 139 101 175 180 14 28 33 57 43 62 12 6 325 10 872 10 928
0 907 -1 1020 56 62 32 156 119 198 184 16 25 40 73 52 106 22 58 23 65 26
692 l3 632 -25 25 c-30 30 -65 32 -97 6 l-24 -19 -5 -629 -5 -628 -32 -66
c-39 -79 -102 -140 -181 -177 l-57 -27 -890 -5 c-805 -5 -893 -7 -920 -22 -42
-23 -79 -65 -108 -123 -49 -98 -118 -144 -215 -145 -100 0 -176 49 -221 143
-29 63 -71 108 -120 130 -19 9 -274 13 -911 17 l-885 5 -57 27 c-79 37 -142
98 -181 177 l-32 66 -3 1350 c-2 1330 -2 1351 18 1415 22 71 71 145 119 179
l31 22 0 -1400 c0 -970 3 -1416 11 -1451 15 -68 64 -138 123 -175 l49 -30 951
-3 c686 -2 962 0 991 8 22 7 56 23 76 36 l36 25 53 -33 53 -33 977 0 977 0 49
30 c59 37 108 107 123 175 8 35 11 481 11 1451 l0 1400 31 -22 c47 -33 97
-107 119 -178 19 -60 20 -90 20 -643 l0 -579 25 -24 c31 -32 69 -32 100 0 l25
24 0 579 c0 350 -4 601 -10 633 -26 136 -139 293 -255 351 l-49 26 -12 80
c-13 92 -45 157 -99 198 -63 48 -94 53 -317 54 -195 0 -209 -1 -228 -20 -28
-28 -26 -75 5 -105 24 -25 25 -25 219 -25 194 0 195 0 225 -26 17 -14 35 -42
41 -62 14 -51 14 -3033 0 -3084 -6 -20 -24 -48 -41 -62 l-31 -26 -928 0 -928
0 -31 26 c-17 14 -35 42 -41 62 -6 24 -10 289 -10 733 l0 696 65 6 c138 13
219 93 232 232 6 62 7 65 42 82 47 24 72 70 78 147 9 104 -4 172 -39 212 -16
18 -36 34 -44 34 -10 0 -14 13 -14 48 0 88 15 116 109 210 154 153 221 300
229 502 3 83 0 134 -12 183 -9 38 -16 72 -16 78 0 5 120 9 300 9 201 0 307 4
324 11 51 23 55 103 7 128 -13 7 -141 11 -365 11 l-345 0 -12 23 c-24 44 -145
161 -217 208 -80 53 -192 94 -297 109 -80 11 -116 11 -200 -1z m210 -154 c218
-39 403 -212 460 -432 18 -67 19 -190 4 -265 -6 -29 -29 -90 -50 -136 -33 -67
-56 -98 -130 -172 -108 -108 -140 -167 -147 -277 l-5 -74 -81 3 -81 3 -3 135
-2 135 47 35 c26 19 58 54 71 78 51 91 21 215 -67 277 -39 27 -50 30 -121 30
-71 0 -82 -3 -122 -30 -116 -83 -127 -238 -23 -334 25 -23 49 -41 55 -41 6 0
10 -53 10 -145 l0 -145 -80 0 -80 0 0 48 c0 55 -19 132 -44 181 -10 19 -53 68
-96 110 -138 135 -189 242 -198 410 -3 63 0 125 8 160 47 218 242 406 463 446
94 17 116 17 212 0z m-805 -339 c0 -3 -7 -35 -16 -73 -22 -96 -20 -249 5 -346
33 -128 91 -225 202 -342 100 -105 119 -139 119 -214 0 -27 -8 -41 -40 -68
-51 -44 -63 -85 -59 -205 4 -110 19 -140 82 -171 35 -18 37 -21 37 -66 0 -143
110 -251 254 -251 l36 0 0 -726 0 -726 -34 -34 -34 -34 -930 0 -930 0 -31 26
c-17 14 -35 42 -41 62 -14 51 -14 3033 0 3084 6 20 24 48 41 62 l31 26 654 0
c360 0 654 -2 654 -4z m742 -483 c26 -23 24 -78 -4 -97 -32 -23 -55 -20 -84
10 -20 19 -24 31 -19 52 12 50 69 69 107 35z m288 -743 l0 -60 -335 0 -335 0
0 60 0 60 335 0 335 0 0 -60z m-112 -261 c-4 -34 -12 -58 -27 -72 -20 -21 -31
-22 -192 -22 l-171 0 -24 28 c-18 21 -24 40 -24 73 l0 44 221 0 222 0 -5 -51z"/>
<path d="M1405 3935 c-32 -31 -33 -74 -2 -103 22 -20 34 -22 156 -22 127 0
133 1 156 25 28 27 30 42 14 78 -17 38 -50 47 -180 47 -114 0 -121 -1 -144
-25z"/>
<path d="M795 3635 c-14 -13 -25 -36 -25 -50 0 -14 11 -37 25 -50 l24 -25 346
0 c332 0 346 1 365 20 30 30 27 83 -6 109 -26 20 -38 21 -366 21 l-339 0 -24
-25z"/>
<path d="M791 3314 c-34 -43 -26 -86 20 -109 23 -12 88 -15 357 -15 318 0 330
1 356 21 33 26 36 79 6 109 -19 19 -33 20 -369 20 l-350 0 -20 -26z"/>
<path d="M1809 3243 c-44 -43 -87 -90 -95 -106 -27 -51 7 -107 64 -107 32 0
47 11 129 93 103 103 115 133 70 175 -44 42 -78 31 -168 -55z"/>
<path d="M815 3019 c-49 -28 -58 -70 -24 -113 l20 -26 350 0 c336 0 350 1 369
20 27 27 26 81 -1 106 -20 18 -43 19 -358 21 -233 2 -342 -1 -356 -8z"/>
<path d="M795 2685 c-14 -13 -25 -36 -25 -50 0 -14 11 -37 25 -50 l24 -25 489
0 c480 0 490 0 516 21 34 27 36 77 3 107 -23 22 -24 22 -516 22 l-492 0 -24
-25z"/>
<path d="M791 2364 c-34 -43 -24 -86 26 -112 16 -9 172 -12 568 -12 460 0 550
2 574 15 47 24 56 78 18 113 l-23 22 -571 0 -572 0 -20 -26z"/>
<path d="M813 2070 c-45 -18 -55 -72 -22 -114 l20 -26 663 0 c619 0 664 1 678
18 37 41 28 100 -19 121 -29 13 -1286 14 -1320 1z"/>
<path d="M795 1735 c-14 -13 -25 -36 -25 -50 0 -14 11 -37 25 -50 l24 -25 650
0 c357 0 657 3 666 6 24 10 46 60 39 89 -14 57 8 55 -702 55 l-653 0 -24 -25z"/>
<path d="M791 1414 c-24 -31 -26 -43 -9 -79 7 -16 24 -29 47 -36 24 -6 251 -9
669 -7 l634 3 24 28 c29 34 30 56 3 91 l-20 26 -664 0 -664 0 -20 -26z"/>
<path d="M3405 3935 c-14 -13 -25 -36 -25 -50 0 -14 11 -37 25 -50 23 -24 29
-25 159 -25 133 0 135 0 155 26 28 35 26 69 -4 99 -23 24 -29 25 -155 25 -126
0 -132 -1 -155 -25z"/>
<path d="M3596 3639 c-33 -26 -36 -79 -6 -109 19 -19 33 -20 365 -20 l346 0
24 25 c14 13 25 36 25 50 0 14 -11 37 -25 50 l-24 25 -339 0 c-328 0 -340 -1
-366 -21z"/>
<path d="M3590 3320 c-30 -30 -27 -83 6 -109 26 -20 38 -21 356 -21 269 0 334
3 357 15 46 23 54 66 20 109 l-20 26 -350 0 c-336 0 -350 -1 -369 -20z"/>
<path d="M3140 3300 c-12 -12 -20 -33 -20 -52 0 -27 15 -46 93 -125 77 -77 98
-93 124 -93 44 0 76 30 76 69 0 27 -14 47 -94 127 -80 80 -98 94 -126 94 -20
0 -41 -8 -53 -20z"/>
<path d="M3620 3023 c-51 -19 -68 -85 -30 -123 19 -19 33 -20 369 -20 l350 0
20 26 c34 43 24 86 -26 112 -22 12 -651 16 -683 5z"/>
<path d="M3292 2690 c-30 -28 -30 -82 0 -110 21 -20 32 -20 515 -20 l494 0 24
25 c14 13 25 36 25 50 0 14 -11 37 -25 50 l-24 25 -494 0 c-483 0 -494 0 -515
-20z"/>
<path d="M3140 2370 c-25 -25 -26 -71 -1 -101 l19 -24 558 -3 c387 -2 567 1
585 8 25 11 49 46 49 74 0 7 -9 25 -21 40 l-20 26 -575 0 c-561 0 -574 0 -594
-20z"/>
<path d="M2984 2068 c-22 -10 -44 -47 -44 -72 0 -7 9 -25 21 -40 l20 -26 664
0 664 0 20 26 c34 43 26 86 -20 109 -24 13 -125 15 -666 14 -418 0 -645 -4
-659 -11z"/>
<path d="M2973 1745 c-11 -8 -24 -26 -27 -40 -7 -29 15 -79 39 -89 9 -3 309
-6 666 -6 l650 0 24 25 c32 31 32 69 0 100 l-24 25 -653 0 c-560 0 -657 -2
-675 -15z"/>
<path d="M2961 1414 c-27 -35 -26 -57 3 -91 l24 -28 634 -3 c418 -2 645 1 669
7 23 7 40 20 47 36 17 36 15 48 -9 79 l-20 26 -664 0 -664 0 -20 -26z"/>
</g>
</svg>
