<?xml version="1.0" standalone="no" ?>
<!DOCTYPE svg PUBLIC "-//W3C//DTD SVG 20010904//EN"
  "http://www.w3.org/TR/2001/REC-SVG-20010904/DTD/svg10.dtd">
<svg
  version="1.0"
  xmlns="http://www.w3.org/2000/svg"
  width="512.000000pt"
  height="512.000000pt"
  viewBox="-28 10 512.000000 512.000000"
  preserveAspectRatio="xMidYMid meet"
>

<g
    transform="translate(0.000000,512.000000) scale(0.090000,-0.090000)"
    fill="#000000"
    stroke="none"
  >
<path
      d="M2397 5104 c-127 -23 -290 -94 -383 -169 l-28 -23 48 -56 c46 -54 49
-56 70 -42 224 162 502 199 740 99 160 -67 307 -205 381 -357 24 -50 52 -122
61 -161 24 -97 21 -257 -5 -358 -22 -83 -89 -223 -122 -253 -19 -17 -19 -15
-19 98 l0 115 -172 67 c-95 38 -177 72 -182 76 -4 5 12 35 38 68 l46 60 0 104
c0 64 -6 124 -15 154 -23 76 -80 143 -154 181 -55 29 -72 33 -141 33 -69 0
-86 -4 -141 -33 -74 -38 -131 -105 -154 -181 -9 -30 -15 -90 -15 -154 l0 -104
46 -60 c26 -33 43 -63 38 -68 -5 -5 -87 -39 -181 -76 l-173 -67 0 -115 c0
-113 0 -115 -19 -98 -32 29 -98 166 -122 252 -27 97 -29 256 -5 356 19 82 61
178 112 254 l38 56 -50 44 c-27 24 -54 43 -61 44 -19 0 -111 -148 -144 -235
-45 -115 -62 -205 -62 -330 -2 -405 263 -753 660 -867 66 -19 102 -23 233 -23
179 0 257 17 395 86 227 113 385 300 460 542 l28 89 243 -243 244 -244 55 55
55 54 -294 296 -294 295 -6 74 c-3 40 -20 116 -37 167 -140 422 -572 678
-1012 598z m250 -536 c50 -34 73 -90 73 -176 0 -72 -1 -73 -52 -142 l-52 -70
-56 0 -56 0 -52 70 c-51 69 -52 70 -52 142 0 129 55 198 159 198 40 0 64 -6
88 -22z m170 -605 l173 -68 0 -142 0 -142 -66 -37 c-36 -20 -100 -48 -142 -62
-69 -23 -93 -26 -222 -26 -130 0 -153 3 -225 27 -44 14 -108 43 -142 64 l-63
37 0 140 0 141 168 66 c160 64 171 67 256 68 88 1 93 0 263 -66z"
    />
<path d="M2482 3808 l3 -73 75 0 75 0 3 73 3 72 -81 0 -81 0 3 -72z" />
<path
      d="M1150 3746 l-295 -294 -74 -6 c-148 -13 -337 -95 -461 -201 -459
-393 -414 -1104 90 -1436 146 -97 306 -142 495 -141 340 1 642 190 793 495 59
120 82 211 89 352 9 197 -33 361 -133 521 -63 103 -62 102 -127 48 l-56 -46
38 -56 c97 -143 126 -241 126 -422 0 -113 -4 -147 -23 -210 -23 -74 -77 -182
-113 -228 -18 -24 -18 -23 -21 94 l-3 119 -182 71 -182 70 49 69 c50 67 50 68
50 145 0 151 -32 244 -108 311 -150 131 -381 91 -477 -82 -28 -51 -30 -62 -33
-186 l-4 -132 47 -61 c26 -34 46 -63 44 -64 -2 -2 -85 -35 -184 -73 l-180 -70
-5 -114 -5 -114 -21 30 c-140 198 -171 485 -77 709 67 160 205 307 357 381
121 59 205 78 336 77 159 -1 296 -44 427 -133 23 -16 44 -29 46 -29 3 0 26 25
51 55 l47 54 -48 35 c-74 54 -169 101 -266 132 l-89 27 243 243 244 244 -55
55 -55 55 -295 -294z m-161 -845 c45 -33 64 -75 69 -161 l4 -75 -53 -72 -52
-73 -61 0 -61 1 -48 65 -49 66 4 91 c3 103 16 129 78 167 46 27 123 23 169 -9z
m161 -601 l175 -69 0 -142 0 -143 -81 -43 c-113 -60 -213 -85 -344 -85 -152 0
-263 30 -387 105 l-53 31 0 137 0 137 178 70 c166 67 182 71 257 71 76 0 89
-3 255 -69z"
    />
<path
      d="M827 2233 c-4 -3 -7 -37 -7 -75 l0 -68 75 0 75 0 0 75 0 75 -68 0
c-38 0 -72 -3 -75 -7z"
    />
<path
      d="M4145 3454 c-371 -38 -683 -297 -785 -654 -31 -108 -38 -299 -16
-410 55 -271 235 -508 481 -633 28 -13 90 -37 138 -52 l89 -28 -243 -243 -244
-244 55 -55 54 -55 296 294 295 294 74 6 c95 8 241 57 333 111 452 266 583
851 289 1284 -23 33 -45 61 -49 61 -4 0 -31 -22 -60 -48 l-53 -47 26 -35 c40
-53 90 -157 116 -240 34 -107 34 -293 0 -400 -24 -78 -69 -175 -105 -225 l-21
-30 -5 114 -5 114 -180 70 c-99 39 -182 71 -184 73 -2 2 18 30 44 64 l47 61
-4 132 c-3 124 -5 135 -33 186 -96 173 -327 213 -477 82 -76 -67 -108 -160
-108 -311 0 -77 0 -78 50 -146 l50 -68 -138 -53 c-75 -29 -157 -61 -182 -71
l-45 -18 -3 -118 c-3 -117 -3 -118 -21 -94 -35 44 -89 153 -111 223 -34 108
-39 276 -11 385 85 342 375 572 721 572 162 0 291 -38 426 -128 l56 -38 44 50
c24 27 43 54 44 61 0 19 -148 111 -235 144 -126 49 -293 74 -410 63z m154
-545 c63 -36 76 -62 79 -166 l4 -91 -49 -66 -48 -65 -61 -1 -61 0 -51 72 c-49
67 -52 74 -52 132 1 66 18 126 45 156 46 51 133 64 194 29z m181 -610 l181
-71 -3 -141 -3 -141 -93 -47 c-117 -60 -207 -81 -342 -81 -131 0 -231 25 -344
85 l-81 43 -3 141 -3 141 178 71 c166 66 183 71 255 71 71 0 89 -5 258 -71z"
    />
<path d="M4150 2145 l0 -75 75 0 75 0 0 75 0 75 -75 0 -75 0 0 -75z" />
<path
      d="M2285 2973 c-181 -65 -257 -270 -164 -443 28 -53 64 -90 233 -241
111 -99 203 -179 206 -179 9 0 342 298 384 343 69 76 91 130 91 227 0 100 -23
158 -88 223 -57 57 -117 81 -202 82 -60 0 -78 -5 -127 -32 l-58 -31 -55 30
c-72 38 -150 46 -220 21z m139 -147 c19 -8 55 -41 82 -74 27 -33 51 -61 54
-61 3 0 27 28 54 61 71 88 133 108 196 66 57 -39 75 -72 75 -137 0 -45 -5 -65
-25 -94 -21 -31 -278 -267 -298 -274 -11 -4 -274 235 -301 273 -36 51 -40 128
-9 174 29 42 83 80 115 80 13 0 39 -6 57 -14z"
    />
<path
      d="M2375 1774 c-96 -21 -206 -67 -291 -120 -103 -63 -102 -62 -48 -127
l46 -56 56 38 c129 88 231 121 392 128 97 5 129 2 200 -16 275 -69 480 -270
551 -538 26 -98 28 -257 5 -358 -18 -75 -79 -211 -118 -260 l-23 -30 -5 119
-5 118 -172 67 c-95 37 -176 70 -179 74 -4 3 15 35 40 69 l48 63 -4 120 c-3
95 -8 130 -25 166 -30 66 -86 124 -151 156 -47 23 -70 28 -132 27 -125 0 -222
-61 -277 -172 -25 -51 -28 -70 -31 -177 l-4 -120 48 -63 c25 -34 43 -66 40
-70 -4 -3 -84 -37 -179 -73 l-172 -67 -5 -119 -5 -118 -23 30 c-39 49 -100
185 -118 260 -23 99 -21 259 4 356 22 81 65 176 113 246 16 23 29 44 29 46 0
3 -25 26 -55 51 l-54 47 -35 -48 c-54 -74 -101 -169 -132 -266 l-27 -89 -243
243 -244 244 -55 -55 -55 -54 294 -296 294 -295 6 -74 c18 -202 137 -421 310
-568 513 -437 1308 -162 1453 502 35 158 15 362 -51 525 -98 245 -325 446
-586 520 -102 29 -324 37 -425 14z m255 -526 c65 -33 90 -82 90 -179 l0 -77
-53 -68 -53 -69 -54 0 -54 0 -53 69 -53 68 0 77 c0 60 5 84 23 116 24 43 91
85 137 85 14 0 46 -10 70 -22z m190 -614 l170 -67 0 -142 0 -143 -77 -40
c-129 -67 -209 -87 -348 -87 -144 0 -212 16 -342 80 l-93 46 0 143 0 143 168
66 c162 64 170 66 260 66 91 1 95 0 262 -65z"
    />
<path d="M2482 498 l3 -73 75 0 75 0 3 73 3 72 -81 0 -81 0 3 -72z" />
</g>
</svg>
