<?xml version="1.0" standalone="no"?>
<!DOCTYPE svg PUBLIC "-//W3C//DTD SVG 20010904//EN"
 "http://www.w3.org/TR/2001/REC-SVG-20010904/DTD/svg10.dtd">
<svg version="1.0" xmlns="http://www.w3.org/2000/svg"
 width="512.000000pt" height="512.000000pt" viewBox="0 0 512.000000 512.000000"
 preserveAspectRatio="xMidYMid meet">

<g transform="translate(0.000000,512.000000) scale(0.100000,-0.100000)"
fill="#000000" stroke="none">
<path d="M2484 5109 c-17 -5 -83 -40 -147 -79 -132 -79 -136 -80 -282 -54 -52
9 -118 14 -158 11 -101 -7 -142 -37 -252 -182 l-90 -120 -65 -17 c-36 -10
-102 -27 -148 -39 -92 -24 -148 -59 -187 -117 -14 -22 -40 -97 -62 -182 l-38
-145 -120 -90 c-187 -141 -204 -184 -169 -426 l18 -129 -22 -43 c-12 -23 -46
-84 -76 -136 -92 -157 -89 -223 24 -408 78 -129 78 -129 55 -268 -38 -230 -13
-290 175 -425 55 -40 106 -82 112 -94 6 -11 26 -79 44 -150 47 -186 98 -247
235 -286 35 -10 63 -22 62 -26 -1 -5 -128 -291 -283 -637 -211 -471 -280 -633
-274 -650 9 -31 31 -54 57 -60 12 -3 124 7 250 22 205 24 229 26 241 12 7 -9
70 -98 139 -197 70 -100 134 -184 143 -188 28 -11 61 -6 82 12 11 9 149 305
307 656 157 352 287 642 289 644 2 2 23 -9 46 -23 116 -73 231 -73 344 1 21
14 42 22 46 17 4 -4 134 -291 289 -638 188 -420 290 -637 307 -653 34 -30 70
-28 103 5 14 16 81 107 148 204 105 151 126 176 145 173 13 -2 119 -15 236
-29 152 -18 218 -22 232 -15 25 13 50 50 50 72 0 10 -126 299 -280 642 -154
344 -280 629 -280 634 0 5 25 14 55 21 30 7 76 27 102 44 73 49 100 97 134
233 16 65 35 131 41 147 6 17 51 57 118 106 189 139 213 197 175 426 -23 139
-23 139 55 268 113 185 116 251 24 408 -30 52 -64 113 -76 136 l-22 43 18 129
c35 242 18 285 -169 426 l-120 90 -38 145 c-59 228 -89 258 -317 317 l-145 38
-90 120 c-110 145 -151 175 -252 182 -40 3 -106 -2 -158 -11 -146 -26 -151
-25 -281 54 -149 90 -209 106 -300 79z m212 -215 c172 -104 189 -107 401 -77
96 13 127 15 147 5 14 -6 64 -63 111 -127 47 -63 102 -126 123 -140 22 -14 94
-39 168 -59 134 -34 162 -45 182 -68 6 -8 27 -76 46 -153 22 -84 46 -154 61
-177 14 -21 77 -76 141 -124 63 -47 120 -96 126 -110 9 -19 9 -48 -1 -122 -21
-153 -24 -227 -11 -267 6 -20 43 -89 82 -153 84 -141 84 -151 8 -273 -106
-169 -114 -206 -85 -384 19 -115 19 -155 -1 -183 -8 -12 -64 -58 -123 -102
-63 -47 -119 -97 -135 -121 -19 -27 -39 -88 -61 -177 -25 -101 -39 -141 -58
-159 -18 -18 -58 -33 -155 -57 -177 -45 -202 -62 -301 -195 -44 -60 -91 -117
-103 -125 -28 -20 -79 -20 -188 -1 -170 30 -207 22 -373 -82 -128 -80 -146
-79 -291 10 -153 94 -190 101 -356 72 -109 -19 -160 -19 -188 1 -12 8 -59 65
-103 125 -99 133 -124 150 -301 195 -170 42 -171 44 -210 205 -42 178 -60 206
-195 306 -62 46 -119 94 -128 106 -19 27 -19 67 0 182 29 178 22 210 -81 378
-80 129 -80 137 4 279 39 64 76 133 82 153 13 40 10 114 -11 267 -10 74 -10
103 -1 122 6 14 63 63 126 110 64 48 127 103 141 124 15 23 39 93 61 178 24
97 41 145 57 161 15 15 66 33 162 57 83 22 155 46 177 61 21 14 77 77 124 141
47 63 96 120 110 126 20 10 52 8 147 -5 212 -30 231 -27 401 77 63 38 121 66
136 66 16 0 73 -28 136 -66z m1134 -3812 c134 -298 241 -544 239 -547 -3 -2
-86 6 -186 18 -135 16 -187 18 -205 10 -13 -6 -71 -78 -128 -161 -58 -83 -107
-151 -110 -151 -10 -1 -517 1144 -509 1147 5 2 57 -4 115 -13 59 -9 126 -17
149 -17 l43 0 132 -296 c134 -300 165 -352 211 -352 28 0 79 53 79 82 0 13
-61 158 -135 323 -74 164 -135 303 -135 307 0 4 19 34 43 65 24 32 63 85 87
117 42 58 43 59 55 35 7 -13 121 -268 255 -567z m-2200 491 c35 -49 73 -99 86
-113 l22 -25 -135 -300 c-79 -174 -136 -313 -136 -332 -2 -60 58 -96 112 -69
24 13 49 62 167 325 l139 309 42 0 c23 0 92 8 153 17 61 10 113 16 115 13 4
-4 -500 -1136 -510 -1146 -2 -2 -39 47 -82 109 -43 62 -95 134 -116 161 -45
57 -39 57 -271 28 -88 -11 -161 -18 -163 -16 -6 6 499 1126 507 1126 4 0 36
-39 70 -87z"/>
<path d="M2356 4625 c-473 -67 -893 -370 -1100 -790 -62 -127 -95 -221 -128
-367 -30 -136 -33 -425 -5 -558 48 -228 159 -477 272 -607 31 -37 42 -43 75
-43 30 0 43 6 59 26 12 15 21 36 21 48 0 12 -29 66 -65 120 -104 157 -161 292
-201 477 -26 118 -26 380 0 499 38 175 103 332 198 475 66 100 239 276 338
342 377 253 827 299 1240 126 47 -19 95 -37 108 -40 56 -13 105 51 82 107 -10
23 -29 38 -84 64 -90 43 -236 89 -346 111 -118 23 -341 28 -464 10z"/>
<path d="M3412 4267 c-14 -14 -22 -36 -22 -56 0 -28 13 -46 77 -112 42 -44 88
-82 100 -85 35 -9 80 14 93 47 19 45 6 69 -79 152 -67 66 -84 77 -113 77 -23
0 -42 -8 -56 -23z"/>
<path d="M2520 4109 c-55 -12 -87 -61 -195 -298 -87 -191 -103 -221 -125 -225
-14 -3 -128 -17 -255 -32 -157 -18 -239 -32 -260 -43 -66 -37 -94 -125 -61
-189 8 -15 98 -105 200 -200 102 -95 186 -179 186 -186 0 -7 -20 -113 -45
-236 -25 -123 -45 -242 -45 -265 0 -81 75 -151 153 -141 23 2 122 51 263 130
l225 126 224 -126 c141 -79 239 -128 262 -130 78 -10 153 60 153 141 0 23 -20
142 -45 265 -25 123 -45 229 -45 236 0 7 84 90 186 185 102 95 192 185 200
200 33 65 5 152 -61 190 -21 12 -102 25 -260 43 -126 15 -241 29 -255 32 -22
4 -38 34 -124 222 -99 216 -131 274 -164 290 -28 15 -75 20 -112 11z m150
-415 c58 -125 114 -234 126 -243 17 -13 83 -24 273 -46 138 -17 251 -32 251
-35 0 -4 -53 -55 -117 -115 -229 -210 -263 -246 -263 -274 0 -15 20 -130 45
-257 25 -126 45 -234 45 -241 0 -6 -83 35 -184 92 -236 133 -260 145 -288 145
-13 0 -123 -56 -246 -124 -122 -69 -222 -119 -222 -113 0 7 20 116 45 242 25
127 45 242 45 257 0 31 -3 34 -220 234 -88 81 -160 150 -160 153 0 4 111 19
248 34 188 22 253 33 272 46 17 12 59 91 129 245 58 124 108 226 111 226 4 0
53 -102 110 -226z"/>
<path d="M3731 3856 c-30 -32 -25 -73 23 -189 21 -48 49 -131 63 -185 24 -88
27 -114 27 -292 1 -157 -3 -211 -18 -275 -62 -265 -183 -482 -370 -663 -248
-240 -551 -363 -896 -364 -269 -1 -518 75 -738 225 -94 65 -129 71 -167 32
-52 -51 -23 -102 103 -183 386 -247 841 -305 1267 -160 433 147 770 488 915
927 59 176 74 288 67 499 -6 183 -21 275 -67 412 -33 96 -88 211 -107 226 -29
22 -77 17 -102 -10z"/>
</g>
</svg>
