<?xml version="1.0" standalone="no" ?>
<!DOCTYPE svg PUBLIC "-//W3C//DTD SVG 20010904//EN"
  "http://www.w3.org/TR/2001/REC-SVG-20010904/DTD/svg10.dtd">
<svg
  version="1.0"
  xmlns="http://www.w3.org/2000/svg"
  width="512.000000pt"
  height="512.000000pt"
  viewBox="-60 47 512.000000 512.000000"
  preserveAspectRatio="xMidYMid meet"
>

<g
    transform="translate(0.000000,512.000000) scale(0.0760000,-0.0760000)"
    fill="#000000"
    stroke="none"
  >
<path
      d="M255 4946 c-41 -18 -83 -69 -90 -109 -3 -18 -5 -154 -3 -304 3 -256
4 -273 24 -299 43 -59 68 -69 175 -72 114 -4 116 -8 66 -74 -22 -29 -54 -54
-97 -75 -36 -18 -71 -40 -77 -50 -21 -27 -15 -72 12 -98 l24 -25 431 0 431 0
24 25 c27 26 33 71 13 98 -7 10 -42 32 -78 50 -43 21 -75 46 -97 75 -50 66
-48 70 66 74 107 3 132 13 175 72 20 26 21 40 21 326 0 286 -1 300 -21 326
-46 62 -65 69 -199 72 -122 4 -125 3 -150 -22 -33 -33 -33 -79 0 -111 22 -23
32 -25 120 -25 l95 0 0 -240 0 -240 -400 0 -400 0 0 240 0 240 175 0 c173 0
176 0 200 25 16 15 25 36 25 55 0 19 -9 40 -25 55 -24 25 -25 25 -217 25 -138
-1 -202 -5 -223 -14z m564 -828 c7 -24 21 -58 32 -76 10 -18 19 -35 19 -38 0
-2 -67 -4 -150 -4 -82 0 -150 2 -150 4 0 3 9 20 19 38 11 18 25 52 32 76 l12
42 87 0 87 0 12 -42z"
    />
<path
      d="M2480 4947 c-49 -16 -133 -102 -148 -153 -28 -94 -8 -169 63 -239 51
-52 102 -75 165 -75 63 0 114 23 165 75 98 97 101 222 8 325 -65 72 -158 97
-253 67z m135 -172 c16 -15 25 -36 25 -55 0 -19 -9 -40 -25 -55 -49 -50 -135
-15 -135 55 0 41 39 80 80 80 19 0 40 -9 55 -25z"
    />
<path
      d="M3935 4946 c-41 -18 -83 -69 -90 -109 -3 -18 -5 -154 -3 -304 3 -256
4 -273 24 -299 43 -59 68 -69 175 -72 114 -4 116 -8 66 -74 -22 -29 -54 -54
-97 -75 -36 -18 -71 -40 -77 -50 -21 -27 -15 -72 12 -98 l24 -25 231 0 231 0
24 25 c16 15 25 36 25 55 0 19 -9 40 -25 55 -22 23 -32 25 -115 25 -49 0 -90
2 -90 4 0 3 9 20 19 38 11 18 25 52 32 76 l12 42 87 0 87 0 13 -46 c19 -66 82
-157 139 -198 61 -45 127 -75 164 -76 57 0 98 77 65 123 -7 10 -42 32 -78 50
-43 21 -75 46 -97 75 -50 66 -48 70 66 74 107 3 132 13 175 72 20 26 21 40 21
326 0 286 -1 300 -21 326 -11 15 -33 37 -48 48 -27 20 -40 21 -474 23 -356 2
-453 0 -477 -11z m865 -386 l0 -240 -400 0 -400 0 0 240 0 240 400 0 400 0 0
-240z"
    />
<path
      d="M1966 4719 c-191 -51 -478 -176 -510 -221 -30 -43 -10 -99 41 -119
22 -8 46 0 152 50 140 66 260 110 384 142 91 23 127 48 127 90 0 41 -9 58 -41
74 -34 18 -22 20 -153 -16z"
    />
<path
      d="M3005 4738 c-31 -17 -45 -39 -45 -73 0 -46 33 -70 127 -94 121 -31
243 -76 384 -142 106 -50 130 -58 152 -50 51 20 71 76 41 119 -32 46 -321 171
-515 222 -131 34 -118 33 -144 18z"
    />
<path
      d="M2423 4217 c-88 -88 -103 -108 -103 -135 0 -69 78 -105 134 -61 l26
20 0 -116 c0 -110 1 -117 25 -140 15 -16 36 -25 55 -25 19 0 40 9 55 25 24 23
25 30 25 140 l0 116 26 -20 c56 -44 134 -8 134 61 0 27 -15 47 -103 135 -90
90 -107 103 -137 103 -30 0 -47 -13 -137 -103z"
    />
<path
      d="M1319 3801 l-29 -29 0 -137 0 -137 30 -30 c26 -25 36 -29 63 -24 40
8 67 39 67 79 0 30 1 29 84 -51 73 -72 88 -82 120 -82 48 0 76 28 76 76 0 32
-10 47 -82 120 -80 83 -81 84 -51 84 40 0 71 27 79 67 5 27 1 37 -24 63 l-30
30 -137 0 -137 0 -29 -29z"
    />
<path
      d="M3468 3800 c-25 -26 -29 -36 -24 -63 8 -40 39 -67 79 -67 30 0 29 -1
-51 -84 -72 -73 -82 -88 -82 -120 0 -23 7 -43 20 -56 13 -13 33 -20 56 -20 32
0 47 10 120 82 83 80 84 81 84 51 0 -40 27 -71 67 -79 27 -5 37 -1 63 24 l30
30 0 137 0 137 -29 29 -29 29 -137 0 -137 0 -30 -30z"
    />
<path
      d="M622 3664 c-47 -33 -171 -323 -222 -517 -29 -108 -30 -119 -16 -146
17 -32 34 -41 75 -41 42 0 67 36 90 127 32 124 76 244 142 384 50 106 58 130
50 152 -20 51 -76 71 -119 41z"
    />
<path
      d="M4407 3660 c-45 -35 -43 -51 21 -188 67 -142 112 -264 143 -385 23
-91 48 -127 90 -127 41 0 58 9 75 41 14 27 13 38 -16 146 -51 194 -175 484
-222 517 -30 22 -60 20 -91 -4z"
    />
<path
      d="M2395 3586 c-108 -19 -153 -35 -170 -59 -23 -33 -19 -74 11 -103 28
-29 24 -29 169 0 277 54 570 -38 775 -244 346 -345 344 -902 -4 -1245 -345
-341 -900 -337 -1241 9 -229 231 -311 569 -214 876 48 151 153 312 264 402 79
65 95 85 95 117 0 32 -31 68 -64 77 -35 8 -77 -17 -163 -99 -102 -97 -165
-182 -224 -302 -144 -294 -143 -629 3 -919 53 -107 88 -156 176 -248 324 -339
805 -423 1222 -214 99 50 151 88 242 174 341 326 423 805 211 1227 -53 104
-113 183 -210 276 -93 89 -142 124 -249 177 -196 98 -423 134 -629 98z"
    />
<path
      d="M2523 3187 c-12 -7 -117 -145 -233 -307 -180 -251 -210 -299 -207
-325 5 -44 421 -623 453 -631 55 -14 66 -2 285 303 139 195 214 308 216 328 3
26 -27 74 -207 325 -200 279 -234 319 -270 319 -8 0 -25 -5 -37 -12z m167
-384 c69 -97 126 -180 128 -183 1 -4 -56 -19 -128 -33 l-130 -26 -130 26 c-72
14 -129 29 -128 33 7 15 253 359 258 359 3 0 61 -79 130 -176z m-210 -388 c81
-15 90 -15 185 3 55 11 101 19 103 17 4 -4 -201 -294 -208 -294 -5 0 -202 276
-209 292 -2 6 7 7 20 4 13 -3 62 -13 109 -22z"
    />
<path
      d="M2149 3150 c-69 -48 -162 -149 -208 -224 -18 -31 -47 -95 -64 -143
-29 -82 -31 -98 -31 -223 0 -125 2 -141 31 -223 17 -48 46 -112 64 -143 77
-127 235 -264 304 -264 24 0 39 7 54 26 39 50 27 82 -56 144 -74 56 -107 91
-154 163 -61 94 -84 174 -84 297 0 190 73 334 228 451 94 72 107 101 66 153
-31 39 -80 35 -150 -14z"
    />
<path
      d="M2821 3164 c-41 -52 -27 -82 64 -150 97 -71 169 -171 211 -294 28
-83 26 -243 -4 -332 -40 -116 -109 -208 -215 -288 -83 -62 -95 -94 -56 -144
32 -41 78 -36 153 18 406 290 406 882 0 1172 -75 54 -121 59 -153 18z"
    />
<path
      d="M320 2787 c-49 -16 -133 -102 -148 -153 -28 -94 -8 -169 63 -239 101
-102 229 -102 330 0 98 97 101 222 8 325 -65 72 -158 97 -253 67z m135 -172
c50 -49 15 -135 -55 -135 -41 0 -80 39 -80 80 0 41 39 80 80 80 19 0 40 -9 55
-25z"
    />
<path
      d="M903 2697 c-90 -90 -103 -107 -103 -137 0 -30 13 -47 103 -137 88
-88 108 -103 135 -103 69 0 105 78 61 134 l-20 26 116 0 c110 0 117 1 140 25
33 32 33 78 0 110 -23 24 -30 25 -140 25 l-116 0 20 26 c44 56 8 134 -61 134
-27 0 -47 -15 -135 -103z"
    />
<path
      d="M4025 2775 c-31 -30 -32 -73 -4 -109 l20 -26 -116 0 c-110 0 -117 -1
-140 -25 -16 -15 -25 -36 -25 -55 0 -19 9 -40 25 -55 23 -24 30 -25 140 -25
l116 0 -20 -26 c-44 -56 -8 -134 61 -134 27 0 47 15 135 103 90 90 103 107
103 137 0 30 -13 47 -103 137 -88 88 -108 103 -135 103 -22 0 -41 -9 -57 -25z"
    />
<path
      d="M4640 2787 c-49 -16 -133 -102 -148 -153 -28 -94 -8 -169 63 -239
101 -102 229 -102 330 0 98 97 101 222 8 325 -65 72 -158 97 -253 67z m135
-172 c50 -49 15 -135 -55 -135 -41 0 -80 39 -80 80 0 19 9 40 25 55 15 16 36
25 55 25 19 0 40 -9 55 -25z"
    />
<path
      d="M412 2153 c-7 -3 -19 -18 -28 -34 -14 -27 -13 -38 16 -146 51 -194
175 -484 222 -517 43 -30 99 -10 119 41 8 22 0 46 -50 152 -66 141 -111 263
-142 384 -24 94 -48 127 -93 126 -17 0 -37 -3 -44 -6z"
    />
<path
      d="M4613 2138 c-12 -13 -31 -60 -42 -105 -32 -124 -77 -245 -142 -382
-64 -134 -66 -156 -22 -191 31 -24 61 -25 91 -4 47 32 168 316 222 517 29 108
30 118 16 145 -25 48 -88 58 -123 20z"
    />
<path
      d="M1534 1648 c-83 -80 -84 -81 -84 -51 0 40 -27 71 -67 79 -27 5 -37 1
-63 -24 l-30 -30 0 -137 0 -137 29 -29 29 -29 137 0 137 0 30 30 c25 26 29 36
24 63 -8 40 -39 67 -79 67 -30 0 -29 1 51 84 72 73 82 88 82 120 0 23 -7 43
-20 56 -13 13 -33 20 -56 20 -32 0 -47 -10 -120 -82z"
    />
<path
      d="M3410 1710 c-13 -13 -20 -33 -20 -56 0 -32 10 -47 82 -120 80 -83 81
-84 51 -84 -40 0 -71 -27 -79 -67 -5 -27 -1 -37 24 -63 l30 -30 137 0 137 0
29 29 29 29 0 137 0 137 -30 30 c-26 25 -36 29 -63 24 -40 -8 -67 -39 -67 -79
0 -30 -1 -29 -84 51 -73 72 -88 82 -120 82 -23 0 -43 -7 -56 -20z"
    />
<path
      d="M2505 1335 c-24 -23 -25 -30 -25 -140 l0 -116 -26 20 c-56 44 -134 8
-134 -61 0 -27 15 -47 103 -135 138 -138 136 -138 274 0 88 88 103 108 103
135 0 69 -78 105 -134 61 l-26 -20 0 116 c0 110 -1 117 -25 140 -15 16 -36 25
-55 25 -19 0 -40 -9 -55 -25z"
    />
<path
      d="M255 1266 c-41 -18 -83 -69 -90 -109 -3 -18 -5 -154 -3 -304 3 -256
4 -273 24 -299 43 -59 68 -69 175 -72 114 -4 116 -8 66 -74 -22 -29 -54 -54
-97 -75 -36 -18 -71 -40 -77 -50 -21 -27 -15 -72 12 -98 l24 -25 431 0 431 0
24 25 c27 26 33 71 13 98 -7 10 -42 32 -78 50 -43 21 -75 46 -97 75 -50 66
-48 70 66 74 107 3 132 13 175 72 20 26 21 40 21 326 0 286 -1 300 -21 326
-11 15 -33 37 -48 48 -27 20 -40 21 -474 23 -356 2 -453 0 -477 -11z m865
-386 l0 -240 -400 0 -400 0 0 240 0 240 400 0 400 0 0 -240z m-301 -442 c7
-24 21 -58 32 -76 10 -18 19 -35 19 -38 0 -2 -67 -4 -150 -4 -82 0 -150 2
-150 4 0 3 9 20 19 38 11 18 25 52 32 76 l12 42 87 0 87 0 12 -42z"
    />
<path
      d="M3935 1266 c-41 -18 -83 -69 -90 -109 -3 -18 -5 -154 -3 -304 3 -256
4 -273 24 -299 43 -59 68 -69 175 -72 114 -4 116 -8 66 -74 -22 -29 -54 -54
-97 -75 -36 -18 -71 -40 -77 -50 -21 -27 -15 -72 12 -98 l24 -25 431 0 431 0
24 25 c27 26 33 71 13 98 -7 10 -42 32 -78 50 -43 21 -75 46 -97 75 -50 66
-48 70 66 74 107 3 132 13 175 72 20 26 21 40 21 326 0 286 -1 300 -21 326
-46 62 -65 69 -199 72 -122 4 -125 3 -150 -22 -33 -33 -33 -79 0 -111 22 -23
32 -25 120 -25 l95 0 0 -240 0 -240 -400 0 -400 0 0 240 0 240 175 0 c173 0
176 0 200 25 16 15 25 36 25 55 0 19 -9 40 -25 55 -24 25 -25 25 -217 25 -138
-1 -202 -5 -223 -14z m564 -828 c7 -24 21 -58 32 -76 10 -18 19 -35 19 -38 0
-2 -67 -4 -150 -4 -82 0 -150 2 -150 4 0 3 9 20 19 38 11 18 25 52 32 76 l12
42 87 0 87 0 12 -42z"
    />
<path
      d="M1494 740 c-27 -11 -54 -48 -54 -75 0 -11 7 -31 16 -43 33 -47 323
-171 517 -222 108 -29 119 -30 146 -16 32 17 41 34 41 75 0 42 -36 67 -127 90
-121 31 -243 76 -384 142 -69 33 -127 59 -130 58 -2 0 -14 -4 -25 -9z"
    />
<path
      d="M3470 691 c-140 -66 -262 -111 -383 -142 -91 -23 -127 -48 -127 -90
0 -41 9 -58 41 -75 27 -14 38 -13 146 16 194 51 484 175 517 222 22 31 20 63
-6 92 -39 42 -55 40 -188 -23z"
    />
<path
      d="M2480 627 c-49 -16 -133 -102 -148 -153 -28 -94 -8 -169 63 -239 70
-71 145 -91 239 -63 55 16 138 99 154 154 26 89 9 163 -55 234 -65 72 -158 97
-253 67z m135 -172 c50 -49 15 -135 -55 -135 -19 0 -40 9 -55 25 -50 49 -15
135 55 135 19 0 40 -9 55 -25z"
    />
</g>
</svg>
