<?xml version="1.0" standalone="no" ?>
<!DOCTYPE svg PUBLIC "-//W3C//DTD SVG 20010904//EN"
  "http://www.w3.org/TR/2001/REC-SVG-20010904/DTD/svg10.dtd">
<svg
  version="1.0"
  xmlns="http://www.w3.org/2000/svg"
  width="480.000000pt"
  height="480.000000pt"
  viewBox="0 0 480.000000 480.000000"
  preserveAspectRatio="xMidYMid meet"
>

<g
    transform="translate(0.000000,480.000000) scale(0.070000,-0.070000)"
    fill="#000000"
    stroke="none"
  >
<path
      d="M190 5111 c-69 -21 -130 -73 -166 -141 -18 -34 -19 -107 -19 -2155
l0 -2120 22 -41 c12 -22 40 -57 62 -77 78 -70 24 -67 1207 -67 l1062 0 94 -25
c273 -71 609 -74 877 -5 185 47 367 125 525 224 48 31 91 56 94 56 4 0 173
-166 377 -369 393 -392 391 -391 485 -391 57 0 130 42 202 116 99 102 124 170
97 269 -9 34 -68 98 -380 410 -203 204 -369 373 -369 377 0 3 28 50 61 104
109 172 194 386 239 599 30 143 39 439 16 591 -98 667 -540 1211 -1168 1438
l-93 34 -5 263 c-3 177 -9 271 -17 284 -23 40 -609 614 -636 624 -33 13 -2526
14 -2567 2z m2460 -376 c5 -209 5 -210 33 -258 31 -52 95 -100 157 -117 19 -5
117 -10 218 -10 l182 0 0 -185 c0 -102 -1 -185 -2 -185 -2 0 -52 7 -113 15
-741 99 -1483 -295 -1820 -965 -85 -169 -143 -346 -177 -540 -17 -99 -17 -441
0 -540 90 -511 352 -925 765 -1208 l91 -62 -883 2 -883 3 -24 28 -24 28 0
2075 0 2076 29 29 30 29 1208 -2 1208 -3 5 -210z m363 -213 c-123 -3 -146 1
-173 28 -18 18 -20 34 -20 147 l0 128 150 -150 150 -150 -107 -3z m62 -692
c194 -23 348 -67 525 -151 460 -219 789 -645 892 -1152 20 -96 23 -142 23
-317 -1 -173 -4 -221 -23 -307 -49 -225 -145 -447 -270 -623 -86 -122 -260
-296 -382 -382 -176 -125 -398 -221 -623 -270 -87 -19 -133 -22 -312 -23 -237
0 -337 15 -529 82 -679 235 -1123 882 -1093 1593 29 683 471 1269 1114 1479
85 28 258 65 343 74 76 8 250 6 335 -3z m1875 -3513 c0 -25 -107 -136 -138
-144 -21 -5 -65 35 -376 346 l-351 351 80 83 80 83 353 -350 c207 -206 352
-358 352 -369z"
    />
<path
      d="M540 4670 c-42 -42 -32 -111 20 -137 36 -18 1743 -19 1780 0 54 27
63 94 20 137 -20 20 -37 20 -910 20 -873 0 -890 0 -910 -20z"
    />
<path
      d="M560 4257 c-52 -26 -62 -95 -20 -137 20 -20 37 -20 909 -20 994 0
925 -5 937 71 5 29 1 41 -19 65 l-25 29 -879 2 c-695 2 -883 0 -903 -10z"
    />
<path
      d="M539 3811 c-17 -18 -29 -40 -29 -56 0 -16 12 -38 29 -56 l29 -29 500
0 499 0 27 26 c42 43 33 104 -21 132 -16 9 -159 12 -513 12 l-492 0 -29 -29z"
    />
<path
      d="M540 3390 c-42 -42 -32 -111 20 -137 39 -20 551 -18 589 2 48 24 58
96 18 133 -23 22 -29 22 -315 22 -277 0 -293 -1 -312 -20z"
    />
<path
      d="M560 2977 c-52 -27 -62 -95 -20 -137 19 -19 34 -20 228 -20 205 0
209 0 230 23 31 33 29 87 -4 118 -25 23 -30 24 -217 27 -142 2 -198 -1 -217
-11z"
    />
<path
      d="M539 2531 c-38 -38 -38 -74 0 -112 l29 -29 157 0 157 0 29 29 c17 18
29 40 29 56 0 16 -12 38 -29 56 l-29 29 -157 0 -157 0 -29 -29z"
    />
<path
      d="M540 2110 c-42 -42 -32 -111 20 -137 34 -17 296 -17 330 0 54 27 63
94 20 137 -18 18 -34 20 -185 20 -151 0 -167 -2 -185 -20z"
    />
<path
      d="M560 1697 c-52 -27 -62 -95 -20 -137 19 -19 34 -20 228 -20 205 0
209 0 230 23 31 33 29 87 -4 118 -25 23 -30 24 -217 27 -142 2 -198 -1 -217
-11z"
    />
<path
      d="M539 1251 c-17 -18 -29 -40 -29 -56 0 -16 12 -38 29 -56 l29 -29 287
0 286 0 24 25 c34 33 34 87 0 120 l-24 25 -286 0 -287 0 -29 -29z"
    />
<path
      d="M2728 3659 c-327 -38 -639 -196 -875 -443 -193 -201 -313 -432 -374
-716 -32 -148 -32 -419 -1 -563 65 -295 194 -537 397 -741 200 -201 461 -340
755 -403 118 -25 418 -25 543 0 589 119 1035 565 1154 1154 25 125 25 425 0
543 -95 445 -363 807 -749 1010 -107 56 -217 100 -253 100 -39 0 -79 -42 -79
-83 0 -48 22 -70 97 -97 410 -149 719 -510 814 -953 23 -103 25 -378 4 -482
-92 -467 -430 -847 -877 -988 -274 -87 -603 -73 -867 37 -529 219 -853 764
-788 1323 73 626 568 1096 1200 1139 86 6 108 11 129 29 37 32 36 89 -2 121
-30 27 -81 29 -228 13z"
    />
<path
      d="M3380 2807 c-14 -7 -184 -224 -384 -490 l-359 -478 -101 100 c-56 55
-113 102 -128 106 -30 8 -82 -16 -92 -40 -3 -9 -6 -31 -6 -49 0 -28 19 -51
153 -184 162 -160 177 -170 226 -136 31 22 799 1047 806 1077 10 37 -11 77
-50 92 -41 18 -34 18 -65 2z"
    />
</g>
</svg>
