<?xml version="1.0" standalone="no" ?>
<!DOCTYPE svg PUBLIC "-//W3C//DTD SVG 20010904//EN"
  "http://www.w3.org/TR/2001/REC-SVG-20010904/DTD/svg10.dtd">
<svg
  version="1.0"
  xmlns="http://www.w3.org/2000/svg"
  width="306.000000pt"
  height="200.000000pt"
  viewBox="0 0 306.000000 200.000000"
  preserveAspectRatio="xMidYMid meet"
>

<g transform="translate(0.000000,200.000000) scale(0.100000,-0.100000)">
<path
      d="M1540 1726 c0 -2 6 -9 14 -15 10 -9 15 -8 20 4 4 10 -1 15 -14 15
-11 0 -20 -2 -20 -4z"
    />
<path
      d="M775 1676 c-65 -16 -107 -38 -156 -83 -78 -71 -137 -232 -135 -370 1
-46 -3 -83 -8 -83 -12 0 0 -446 13 -489 10 -33 9 -37 -23 -63 -42 -35 -71
-101 -91 -214 -19 -103 -9 -153 36 -186 44 -33 95 -38 419 -37 270 0 311 2
285 13 -64 28 -67 40 -69 213 l-1 158 -25 -2 c-22 -2 -18 4 30 47 30 27 49 50
41 50 -20 0 -8 82 23 160 14 35 26 74 26 86 0 23 -1 22 -77 -12 -112 -50 -146
-68 -150 -79 -2 -6 19 -20 47 -32 37 -16 54 -30 66 -56 10 -20 22 -33 30 -30
9 3 10 -4 4 -34 -9 -37 -34 -64 -107 -115 -18 -13 -33 -29 -33 -35 0 -21 -23
-15 -76 21 -29 19 -54 32 -58 29 -3 -4 -6 -42 -6 -85 0 -63 -3 -78 -15 -78 -8
0 -15 -7 -15 -16 0 -10 6 -14 15 -10 9 3 15 0 15 -9 0 -9 -9 -15 -21 -15 -20
0 -20 4 -18 120 l2 121 -34 29 c-45 38 -68 38 -75 0 -7 -35 -7 -35 -39 -14
-31 20 -47 67 -35 99 13 34 32 31 66 -8 23 -27 36 -34 64 -33 19 0 45 -3 58
-7 18 -7 22 -5 22 12 0 17 5 20 28 15 25 -5 30 -2 40 23 16 41 24 96 15 109
-5 7 -47 35 -94 63 -131 76 -167 130 -189 276 -25 164 10 336 83 408 96 95
304 117 454 47 58 -27 62 -27 77 -11 9 10 16 23 16 29 0 31 -160 92 -242 92
-29 0 -38 -4 -38 -17 -1 -17 -1 -17 -11 0 -12 20 -59 21 -134 3z"
    />
<path
      d="M2080 1602 c-74 -48 -94 -75 -86 -117 7 -36 8 -36 29 -21 84 60 112
71 193 74 91 4 127 -7 211 -65 40 -27 58 -34 78 -29 14 4 31 3 38 -1 7 -4 16
-8 21 -8 6 0 14 -16 19 -35 18 -71 65 -90 52 -21 -21 116 -27 135 -39 120 -6
-8 -27 -14 -47 -14 -30 0 -46 9 -91 51 -66 63 -106 84 -155 84 -59 -1 -75 0
-128 6 -43 5 -56 1 -95 -24z"
    />
<path
      d="M1520 1480 c-19 -15 -21 -20 -9 -20 25 0 80 25 72 33 -12 12 -37 7
-63 -13z"
    />
<path
      d="M721 1392 c-36 -18 -60 -46 -49 -58 8 -7 135 34 143 46 6 10 -26 30
-47 30 -7 0 -28 -8 -47 -18z"
    />
<path
      d="M1026 1397 c-15 -11 -15 -15 -4 -24 7 -6 27 -13 43 -15 22 -2 30 2
33 16 7 33 -38 47 -72 23z"
    />
<path
      d="M2047 1403 c-23 -4 -27 -8 -21 -26 9 -30 6 -29 51 -19 44 10 87 -2
111 -31 26 -31 -32 -126 -93 -153 -20 -9 -24 -13 -12 -14 37 0 78 32 108 85
37 65 61 71 87 23 9 -18 34 -50 55 -72 35 -37 40 -38 87 -34 59 6 89 30 120
95 28 60 24 114 -10 129 -39 18 -190 24 -190 8 0 -16 -71 -54 -100 -54 -29 0
-96 36 -103 55 -6 15 -29 17 -90 8z m461 -39 c28 -19 29 -63 3 -120 -38 -84
-106 -98 -173 -36 -35 33 -41 45 -42 82 -1 39 2 45 33 64 33 19 36 19 81 3 60
-21 63 -21 57 3 -6 24 10 26 41 4z"
    />
<path
      d="M2368 1332 c-23 -26 -28 -50 -18 -77 19 -51 70 -24 70 37 0 46 -28
68 -52 40z"
    />
<path
      d="M1725 1380 c-3 -5 0 -10 8 -10 8 0 25 -9 39 -20 14 -10 49 -29 79
-40 76 -29 89 -48 89 -128 0 -74 12 -74 31 -1 17 63 -2 91 -84 128 -34 16 -80
40 -101 55 -42 29 -52 31 -61 16z"
    />
<path
      d="M2071 1336 c-7 -8 -11 -32 -9 -53 2 -32 7 -39 27 -41 31 -5 50 19 43
56 -9 49 -37 67 -61 38z"
    />
<path
      d="M737 1323 c-14 -13 -7 -91 8 -97 39 -15 67 34 46 80 -10 23 -40 32
-54 17z"
    />
<path
      d="M1038 1305 c-8 -17 -8 -35 -2 -52 19 -55 44 -30 44 45 0 40 -25 44
-42 7z"
    />
<path
      d="M1380 1281 c-23 -45 0 -99 38 -87 18 6 22 15 22 51 0 30 -5 45 -16
49 -25 10 -33 7 -44 -13z"
    />
<path
      d="M1692 1288 c-13 -13 -16 -56 -6 -82 7 -19 35 -21 52 -4 26 26 9 98
-23 98 -6 0 -16 -5 -23 -12z"
    />
<path
      d="M1170 1265 c-18 -22 -20 -109 -3 -126 20 -20 24 -6 21 71 -3 67 -4
72 -18 55z"
    />
<path
      d="M2190 1098 c0 -5 25 -8 55 -8 30 0 55 3 55 8 0 4 -25 7 -55 7 -30 0
-55 -3 -55 -7z"
    />
<path
      d="M860 1080 c8 -5 33 -10 55 -10 22 0 47 5 55 10 10 7 -6 10 -55 10
-49 0 -65 -3 -55 -10z"
    />
<path d="M1190 1073 c1 -13 29 -59 30 -48 0 21 -13 55 -21 55 -5 0 -9 -3 -9
-7z" />
<path d="M1909 1044 c-5 -15 -8 -29 -5 -31 2 -2 8 10 14 26 13 38 5 41 -9 5z" />
<path
      d="M1500 1048 c0 -5 27 -8 60 -8 33 0 60 3 60 8 0 4 -27 7 -60 7 -33 0
-60 -3 -60 -7z"
    />
<path
      d="M1240 912 c0 -10 -14 -40 -32 -68 -38 -61 -92 -173 -85 -180 2 -3 14
11 25 30 27 46 65 56 97 26 29 -27 40 -67 24 -86 -16 -19 3 -19 41 1 33 17 37
26 46 122 l6 71 -38 34 c-21 18 -45 41 -53 51 -20 22 -31 22 -31 -1z"
    />
<path
      d="M2096 671 c-35 -37 -27 -51 29 -51 34 0 47 5 60 22 15 22 14 23 -12
32 -16 5 -33 12 -39 17 -6 5 -21 -3 -38 -20z"
    />
<path
      d="M2451 588 c0 -65 2 -118 7 -118 4 0 7 -16 7 -35 0 -39 -16 -42 -25
-4 -6 24 -6 24 -14 -5 l-7 -28 -97 2 c-189 5 -252 1 -252 -15 0 -13 29 -15
193 -17 l192 -3 -187 -2 -188 -3 0 -68 c0 -45 -5 -75 -16 -90 l-15 -22 128 -1
c399 -5 419 -4 480 27 32 16 59 34 60 40 2 6 -17 19 -42 28 -25 10 -45 23 -45
29 0 7 -4 6 -10 -3 -7 -11 -10 -11 -10 -2 0 14 -48 62 -61 62 -5 0 -9 -8 -9
-17 -1 -11 -7 -4 -15 15 -8 18 -21 35 -30 38 -27 11 -16 26 15 22 16 -2 31 0
33 6 7 20 -5 36 -28 36 -37 0 -45 21 -54 136 l-8 109 -2 -117z m-84 -265 c-20
-2 -52 -2 -70 0 -17 2 0 4 38 4 39 0 53 -2 32 -4z"
    />
<path
      d="M2032 632 c-21 -3 -22 -7 -16 -60 4 -31 13 -65 19 -75 11 -15 13 -6
17 60 3 43 4 78 4 78 -1 1 -11 -1 -24 -3z"
    />
<path
      d="M1117 572 c-25 -10 -36 -20 -32 -29 3 -8 5 -22 5 -31 0 -11 7 -5 19
14 11 18 30 39 42 48 29 20 16 19 -34 -2z"
    />
<path
      d="M1736 411 c-4 -5 -2 -12 3 -15 5 -4 12 -2 15 3 4 5 2 12 -3 15 -5 4
-12 2 -15 -3z"
    />
<path d="M2536 392 c-3 -6 -1 -14 5 -17 15 -10 25 3 12 16 -7 7 -13 7 -17 1z" />
</g>
</svg>
